<svg width="82" height="67" viewBox="0 0 82 67" fill="none" xmlns="http://www.w3.org/2000/svg">
<path d="M26.9086 53.6608C27.6443 58.7243 32.2563 62.7086 39.1266 63.8068C45.9522 64.8978 54.799 63.0545 63.326 56.5804L64.876 58.6224C55.8596 65.4679 46.3194 67.5526 38.7223 66.3383C31.1701 65.1311 25.3234 60.5772 24.3722 54.0289L26.9086 53.6608Z" fill="#64748B"/>
<path d="M9.14393 9.51588C13.8334 8.95865 18.1614 11.6242 19.9131 15.7655C20.3026 16.6864 19.3579 17.5086 18.3833 17.285C16.4003 16.83 14.2123 16.7008 11.9458 16.9701C7.83042 17.4591 4.2739 19.1619 1.91308 21.4875C1.28577 22.1055 0.177287 21.9072 0.0733836 21.0328C-0.601901 15.3476 3.4588 10.1916 9.14393 9.51588Z" fill="#64748B"/>
<path d="M70.4021 0.0727407C75.0407 -0.47845 79.3222 2.15357 81.0627 6.24559C81.4541 7.1657 80.5096 7.98807 79.5347 7.76561C77.5756 7.31851 75.4153 7.19224 73.1777 7.45813C69.1005 7.9426 65.5771 9.62946 63.2382 11.9335C62.6169 12.5455 61.5183 12.3493 61.4154 11.4832C60.7463 5.85083 64.7697 0.742169 70.4021 0.0727407Z" fill="#64748B"/>
</svg>
