<svg width="203" height="56" viewBox="0 0 203 56" fill="none" xmlns="http://www.w3.org/2000/svg">
<path d="M183 36.7L180.1 34.06C169.8 24.72 163 18.54 163 11C163 4.82 167.84 0 174 0C177.48 0 180.82 1.62 183 4.16C185.18 1.62 188.52 0 192 0C198.16 0 203 4.82 203 11C203 18.54 196.2 24.72 185.9 34.06L183 36.7Z" fill="#64748B"/>
<path d="M27.52 12.016V12.976C26.528 13.104 25.568 13.424 24.64 13.936C23.712 14.448 22.784 15.296 21.856 16.48L12.592 28.336L13.648 25.984L25.168 42.112C25.712 42.912 26.304 43.536 26.944 43.984C27.584 44.432 28.4 44.784 29.392 45.04V46C28.624 45.936 27.664 45.904 26.512 45.904C25.392 45.872 24.432 45.856 23.632 45.856C23.088 45.856 22.416 45.872 21.616 45.904C20.848 45.904 19.872 45.936 18.688 46V45.04C19.776 44.976 20.464 44.784 20.752 44.464C21.04 44.144 20.928 43.616 20.416 42.88L13.408 32.32C12.768 31.328 12.192 30.592 11.68 30.112C11.2 29.6 10.688 29.264 10.144 29.104C9.63199 28.944 8.97599 28.848 8.17599 28.816V27.856C9.51999 27.824 10.64 27.568 11.536 27.088C12.464 26.576 13.232 25.936 13.84 25.168L18.448 19.312C19.504 17.968 20.224 16.832 20.608 15.904C20.992 14.976 20.976 14.272 20.56 13.792C20.144 13.28 19.264 13.008 17.92 12.976V12.016C18.528 12.048 19.152 12.08 19.792 12.112C20.432 12.112 21.056 12.128 21.664 12.16C22.304 12.16 22.896 12.16 23.44 12.16C24.272 12.16 25.04 12.144 25.744 12.112C26.448 12.08 27.04 12.048 27.52 12.016ZM12.256 12.016V12.976C11.168 13.008 10.336 13.136 9.75999 13.36C9.21599 13.552 8.84799 13.936 8.65599 14.512C8.46399 15.056 8.36799 15.92 8.36799 17.104V40.912C8.36799 42.064 8.46399 42.928 8.65599 43.504C8.84799 44.08 9.21599 44.464 9.75999 44.656C10.336 44.848 11.168 44.976 12.256 45.04V46C11.52 45.936 10.592 45.904 9.47199 45.904C8.38399 45.872 7.27999 45.856 6.15999 45.856C4.91199 45.856 3.74399 45.872 2.65599 45.904C1.56799 45.904 0.687991 45.936 0.0159912 46V45.04C1.10399 44.976 1.91999 44.848 2.46399 44.656C3.03999 44.464 3.42399 44.08 3.61599 43.504C3.80799 42.928 3.90399 42.064 3.90399 40.912V17.104C3.90399 15.92 3.80799 15.056 3.61599 14.512C3.42399 13.936 3.03999 13.552 2.46399 13.36C1.91999 13.136 1.10399 13.008 0.0159912 12.976V12.016C0.687991 12.048 1.56799 12.08 2.65599 12.112C3.74399 12.144 4.91199 12.16 6.15999 12.16C7.27999 12.16 8.38399 12.144 9.47199 12.112C10.592 12.08 11.52 12.048 12.256 12.016Z" fill="#0F172A"/>
<path d="M36.3171 9.28C37.1491 9.28 37.8691 9.584 38.4771 10.192C39.0851 10.8 39.3891 11.52 39.3891 12.352C39.3891 13.184 39.0851 13.904 38.4771 14.512C37.8691 15.12 37.1491 15.424 36.3171 15.424C35.4851 15.424 34.7651 15.12 34.1571 14.512C33.5491 13.904 33.2451 13.184 33.2451 12.352C33.2451 11.52 33.5491 10.8 34.1571 10.192C34.7651 9.584 35.4851 9.28 36.3171 9.28ZM38.8131 20.752V41.536C38.8131 42.88 39.0851 43.792 39.6291 44.272C40.2051 44.752 41.1491 44.992 42.4611 44.992V46C41.9171 45.968 41.0851 45.936 39.9651 45.904C38.8771 45.84 37.7731 45.808 36.6531 45.808C35.5651 45.808 34.4611 45.84 33.3411 45.904C32.2211 45.936 31.3891 45.968 30.8451 46V44.992C32.1571 44.992 33.0851 44.752 33.6291 44.272C34.2051 43.792 34.4931 42.88 34.4931 41.536V26.512C34.4931 25.072 34.2371 24.016 33.7251 23.344C33.2131 22.64 32.2531 22.288 30.8451 22.288V21.28C31.8691 21.376 32.8611 21.424 33.8211 21.424C34.7491 21.424 35.6291 21.376 36.4611 21.28C37.3251 21.152 38.1091 20.976 38.8131 20.752Z" fill="#0F172A"/>
<path d="M61.0356 20.608C62.2516 20.608 63.2596 20.768 64.0596 21.088C64.8916 21.408 65.5796 21.856 66.1236 22.432C66.7316 23.072 67.1636 23.872 67.4196 24.832C67.6756 25.792 67.8036 27.088 67.8036 28.72V41.536C67.8036 42.88 68.0756 43.792 68.6196 44.272C69.1956 44.752 70.1396 44.992 71.4516 44.992V46C70.9076 45.968 70.0756 45.936 68.9556 45.904C67.8356 45.84 66.7476 45.808 65.6916 45.808C64.6356 45.808 63.5956 45.84 62.5716 45.904C61.5796 45.936 60.8276 45.968 60.3156 46V44.992C61.4676 44.992 62.2836 44.752 62.7636 44.272C63.2436 43.792 63.4836 42.88 63.4836 41.536V27.664C63.4836 26.672 63.4036 25.76 63.2436 24.928C63.0836 24.096 62.7156 23.424 62.1396 22.912C61.5956 22.4 60.7476 22.144 59.5956 22.144C58.2516 22.144 57.0676 22.528 56.0436 23.296C55.0516 24.064 54.2676 25.12 53.6916 26.464C53.1476 27.776 52.8756 29.248 52.8756 30.88V41.536C52.8756 42.88 53.1156 43.792 53.5956 44.272C54.0756 44.752 54.8916 44.992 56.0436 44.992V46C55.5316 45.968 54.7636 45.936 53.7396 45.904C52.7476 45.84 51.7236 45.808 50.6676 45.808C49.6116 45.808 48.5236 45.84 47.4036 45.904C46.2836 45.936 45.4516 45.968 44.9076 46V44.992C46.2196 44.992 47.1476 44.752 47.6916 44.272C48.2676 43.792 48.5556 42.88 48.5556 41.536V26.512C48.5556 25.072 48.2996 24.016 47.7876 23.344C47.2756 22.64 46.3156 22.288 44.9076 22.288V21.28C45.9316 21.376 46.9236 21.424 47.8836 21.424C48.8116 21.424 49.6916 21.376 50.5236 21.28C51.3876 21.152 52.1716 20.976 52.8756 20.752V26.416C53.7076 24.24 54.8596 22.736 56.3316 21.904C57.8356 21.04 59.4036 20.608 61.0356 20.608Z" fill="#0F172A"/>
<path d="M95.3882 8.368V40.768C95.3882 42.208 95.6442 43.28 96.1562 43.984C96.7002 44.656 97.6602 44.992 99.0362 44.992V46C98.0442 45.904 97.0522 45.856 96.0602 45.856C95.1322 45.856 94.2362 45.904 93.3722 46C92.5402 46.096 91.7722 46.272 91.0682 46.528V14.128C91.0682 12.688 90.8122 11.632 90.3002 10.96C89.7882 10.256 88.8282 9.904 87.4202 9.904V8.896C88.4442 8.992 89.4362 9.04 90.3962 9.04C91.3242 9.04 92.2042 8.992 93.0362 8.896C93.9002 8.768 94.6842 8.592 95.3882 8.368ZM85.3082 20.608C86.7162 20.608 88.0282 20.944 89.2442 21.616C90.4922 22.288 91.3242 23.44 91.7402 25.072L91.1162 25.552C90.6682 24.208 89.9642 23.232 89.0042 22.624C88.0762 22.016 86.9722 21.712 85.6922 21.712C83.8042 21.712 82.2202 22.688 80.9402 24.64C79.6922 26.592 79.0842 29.6 79.1162 33.664C79.1162 36.256 79.3562 38.416 79.8362 40.144C80.3482 41.84 81.0842 43.12 82.0442 43.984C83.0362 44.816 84.2362 45.232 85.6442 45.232C86.9882 45.232 88.2042 44.656 89.2922 43.504C90.3802 42.352 91.0362 40.656 91.2602 38.416L91.8362 39.088C91.5802 41.52 90.7962 43.392 89.4842 44.704C88.2042 46.016 86.4602 46.672 84.2522 46.672C82.2682 46.672 80.5242 46.192 79.0202 45.232C77.5482 44.272 76.4122 42.832 75.6122 40.912C74.8442 38.992 74.4602 36.576 74.4602 33.664C74.4602 30.752 74.9562 28.336 75.9482 26.416C76.9722 24.464 78.3002 23.008 79.9322 22.048C81.5962 21.088 83.3882 20.608 85.3082 20.608Z" fill="#0F172A"/>
<path d="M113.103 20.608C115.919 20.608 118.111 21.472 119.679 23.2C121.279 24.896 122.079 27.552 122.079 31.168H105.135L105.087 30.256H117.471C117.535 28.688 117.407 27.248 117.087 25.936C116.767 24.592 116.255 23.52 115.551 22.72C114.879 21.92 113.999 21.52 112.911 21.52C111.439 21.52 110.127 22.256 108.975 23.728C107.855 25.2 107.183 27.536 106.959 30.736L107.103 30.928C107.039 31.408 106.991 31.936 106.959 32.512C106.927 33.088 106.911 33.664 106.911 34.24C106.911 36.416 107.263 38.288 107.967 39.856C108.671 41.424 109.583 42.624 110.703 43.456C111.855 44.256 113.039 44.656 114.255 44.656C115.215 44.656 116.127 44.512 116.991 44.224C117.855 43.904 118.655 43.392 119.391 42.688C120.127 41.984 120.767 41.04 121.311 39.856L122.271 40.24C121.919 41.296 121.343 42.32 120.543 43.312C119.743 44.304 118.735 45.12 117.519 45.76C116.303 46.368 114.895 46.672 113.295 46.672C110.991 46.672 109.007 46.144 107.343 45.088C105.711 44.032 104.447 42.576 103.551 40.72C102.687 38.832 102.255 36.672 102.255 34.24C102.255 31.424 102.703 29.008 103.599 26.992C104.495 24.944 105.759 23.376 107.391 22.288C109.023 21.168 110.927 20.608 113.103 20.608Z" fill="#0F172A"/>
<path d="M140.648 20.608C141.512 20.608 142.264 20.784 142.904 21.136C143.576 21.488 144.088 21.952 144.44 22.528C144.824 23.072 145.016 23.696 145.016 24.4C145.016 25.2 144.76 25.904 144.248 26.512C143.768 27.12 143.112 27.424 142.28 27.424C141.608 27.424 141.016 27.216 140.504 26.8C139.992 26.352 139.736 25.728 139.736 24.928C139.736 24.32 139.896 23.808 140.216 23.392C140.568 22.944 140.952 22.592 141.368 22.336C141.144 22.016 140.808 21.856 140.36 21.856C139.368 21.856 138.456 22.16 137.624 22.768C136.792 23.344 136.088 24.096 135.512 25.024C134.936 25.952 134.488 26.944 134.168 28C133.848 29.024 133.688 29.984 133.688 30.88V41.056C133.688 42.624 134.136 43.68 135.032 44.224C135.96 44.736 137.208 44.992 138.776 44.992V46C138.04 45.968 137 45.936 135.656 45.904C134.312 45.84 132.888 45.808 131.384 45.808C130.296 45.808 129.208 45.84 128.12 45.904C127.064 45.936 126.264 45.968 125.72 46V44.992C127.032 44.992 127.96 44.752 128.504 44.272C129.08 43.792 129.368 42.88 129.368 41.536V26.512C129.368 25.072 129.112 24.016 128.6 23.344C128.088 22.64 127.128 22.288 125.72 22.288V21.28C126.744 21.376 127.736 21.424 128.696 21.424C129.624 21.424 130.504 21.376 131.336 21.28C132.2 21.152 132.984 20.976 133.688 20.752V26.752C134.04 25.824 134.536 24.896 135.176 23.968C135.848 23.008 136.648 22.208 137.576 21.568C138.504 20.928 139.528 20.608 140.648 20.608Z" fill="#0F172A"/>
<path d="M153.79 8.368V41.536C153.79 42.88 154.062 43.792 154.606 44.272C155.182 44.752 156.126 44.992 157.438 44.992V46C156.894 45.968 156.062 45.936 154.942 45.904C153.854 45.84 152.75 45.808 151.63 45.808C150.542 45.808 149.438 45.84 148.318 45.904C147.198 45.936 146.366 45.968 145.822 46V44.992C147.134 44.992 148.062 44.752 148.606 44.272C149.182 43.792 149.47 42.88 149.47 41.536V14.128C149.47 12.688 149.214 11.632 148.702 10.96C148.19 10.256 147.23 9.904 145.822 9.904V8.896C146.846 8.992 147.838 9.04 148.798 9.04C149.726 9.04 150.606 8.992 151.438 8.896C152.302 8.768 153.086 8.592 153.79 8.368Z" fill="#0F172A"/>
<path d="M182.212 21.28V22.24C181.604 22.304 181.044 22.576 180.532 23.056C180.02 23.536 179.54 24.384 179.092 25.6L171.22 46.24H170.404L161.572 24.976C160.964 23.728 160.356 22.976 159.748 22.72C159.172 22.432 158.692 22.288 158.308 22.288V21.28C159.012 21.376 159.748 21.456 160.516 21.52C161.284 21.552 162.116 21.568 163.012 21.568C164.004 21.568 165.044 21.536 166.132 21.472C167.252 21.408 168.292 21.344 169.252 21.28V22.288C168.452 22.288 167.732 22.352 167.092 22.48C166.484 22.576 166.1 22.912 165.94 23.488C165.78 24.032 165.972 24.976 166.516 26.32L172.42 40.96L172.132 41.056L177.604 26.752C178.02 25.696 178.18 24.864 178.084 24.256C178.02 23.616 177.7 23.136 177.124 22.816C176.548 22.496 175.684 22.304 174.532 22.24V21.28C175.108 21.312 175.604 21.344 176.02 21.376C176.436 21.376 176.836 21.392 177.22 21.424C177.636 21.424 178.084 21.424 178.564 21.424C179.3 21.424 179.956 21.408 180.532 21.376C181.14 21.344 181.7 21.312 182.212 21.28ZM171.22 46.24L169.588 50.416C169.268 51.216 168.932 51.888 168.58 52.432C168.26 52.976 167.908 53.424 167.524 53.776C167.012 54.256 166.404 54.576 165.7 54.736C164.996 54.928 164.356 55.024 163.78 55.024C163.172 55.024 162.612 54.912 162.1 54.688C161.62 54.464 161.236 54.128 160.948 53.68C160.66 53.264 160.516 52.752 160.516 52.144C160.516 51.376 160.74 50.752 161.188 50.272C161.636 49.824 162.26 49.6 163.06 49.6C163.732 49.6 164.308 49.792 164.788 50.176C165.268 50.56 165.508 51.12 165.508 51.856C165.508 52.4 165.38 52.848 165.124 53.2C164.868 53.552 164.564 53.824 164.212 54.016C164.276 54.048 164.324 54.064 164.356 54.064C164.42 54.064 164.468 54.064 164.5 54.064C165.364 54.064 166.132 53.76 166.804 53.152C167.476 52.576 168.068 51.632 168.58 50.32L170.308 45.856L171.22 46.24Z" fill="#0F172A"/>
</svg>
