<svg width="48" height="49" viewBox="0 0 48 49" fill="none" xmlns="http://www.w3.org/2000/svg">
<path d="M23.0565 20.2281C23.2235 20.2831 23.3945 20.3236 23.5695 20.3496C23.8475 20.4196 24.129 20.4696 24.414 20.4996C24.5497 21.1527 24.9015 21.7409 25.4126 22.1695C25.9237 22.598 26.5643 22.8418 27.231 22.8616C27.8977 22.8814 28.5516 22.6759 29.0872 22.2784C29.6228 21.8809 30.0088 21.3145 30.183 20.6706C30.51 19.4916 30.678 18.2736 30.6825 17.0496C31.3989 16.0789 31.9877 15.0203 32.4345 13.8996L32.454 13.8546L32.6145 13.4646L32.82 12.9456C33.0395 12.3771 33.2471 11.8039 33.4425 11.2266L33.483 11.1066L33.498 11.0586C33.6 10.7586 33.702 10.4256 33.798 10.0896C33.855 9.89563 33.9095 9.69963 33.9615 9.50163C34.2081 8.62365 34.3698 7.72402 34.4445 6.81513V6.77013C34.4705 6.02619 34.219 5.29915 33.7389 4.7303C33.2587 4.16145 32.5842 3.79142 31.8465 3.69213C31.263 3.61725 30.6705 3.71914 30.1455 3.98463C29.6845 4.21808 29.2915 4.56667 29.0048 4.99661C28.7181 5.42656 28.5473 5.92327 28.509 6.43863V6.45363C28.3922 7.37086 28.1759 8.27267 27.864 9.14313C27.714 9.59313 27.564 10.0206 27.414 10.4031C27.112 10.2481 26.8 10.1181 26.478 10.0131L26.4495 9.99963C25.0988 9.57021 23.6333 9.69027 22.3706 10.3338C21.1078 10.9774 20.1494 12.0925 19.7031 13.4377C19.2568 14.7829 19.3585 16.2498 19.9862 17.5205C20.6139 18.7913 21.717 19.7635 23.0565 20.2266V20.2281ZM28.7355 20.2746C28.6557 20.5708 28.4851 20.8345 28.2476 21.0286C28.0101 21.2227 27.7178 21.3376 27.4117 21.3569C27.1056 21.3763 26.8011 21.2993 26.5411 21.1366C26.281 20.9739 26.0785 20.7339 25.962 20.4501C26.247 20.3991 26.5265 20.3271 26.8005 20.2341C27.6262 19.9417 28.3855 19.4879 29.034 18.8991C28.959 19.3631 28.8595 19.8216 28.7355 20.2746ZM21.0705 13.8846C21.2309 13.4009 21.4851 12.9536 21.8184 12.5682C22.1518 12.1828 22.5578 11.8668 23.0133 11.6384C23.4688 11.4099 23.9649 11.2734 24.4731 11.2368C24.9814 11.2001 25.4919 11.2639 25.9755 11.4246L26.0205 11.4396C26.3135 11.5336 26.594 11.6556 26.862 11.8056L26.8305 11.8791V11.8971C26.4957 12.678 26.0401 13.4014 25.4805 14.0406L25.4565 14.0646L25.419 14.1081C25.371 14.1645 25.321 14.219 25.269 14.2716L25.119 14.2146L25.074 14.1996C24.8353 14.1207 24.575 14.1395 24.3502 14.252C24.1253 14.3644 23.9541 14.5613 23.874 14.7996C23.8286 14.9157 23.8091 15.0402 23.8169 15.1646C23.8246 15.289 23.8595 15.4101 23.919 15.5196C24.009 15.7116 24.162 15.8661 24.3525 15.9576C24.4025 15.9696 24.4525 15.9836 24.5025 15.9996C24.6385 16.0486 24.778 16.0791 24.921 16.0911C25.1493 16.1046 25.3768 16.0526 25.5765 15.9411C25.6815 15.8871 25.7815 15.8251 25.8765 15.7551C26.1295 15.5571 26.3585 15.3346 26.5635 15.0876L26.5785 15.0726C27.2492 14.3179 27.7946 13.4605 28.194 12.5331C28.2405 12.4267 28.2845 12.3191 28.326 12.2106V12.1881L28.341 12.1521C28.4245 11.9566 28.5055 11.7601 28.584 11.5626L28.635 11.4321L28.686 11.3001C29.322 9.77763 29.766 8.18163 30.0105 6.54963C30.0245 6.36763 30.0695 6.19313 30.1455 6.02613C30.2324 5.84042 30.3565 5.67451 30.51 5.53863C30.8008 5.28014 31.1821 5.14745 31.5705 5.16963C31.893 5.18763 32.2005 5.31363 32.4405 5.52963C32.6083 5.67677 32.7412 5.8595 32.8294 6.0645C32.9176 6.2695 32.959 6.49161 32.9505 6.71463C32.9345 6.95463 32.907 7.20463 32.868 7.46463C32.748 8.20463 32.58 8.93313 32.364 9.65013L32.301 9.86013C32.028 10.7538 31.7202 11.6364 31.3785 12.5061L31.329 12.6321C31.2441 12.8475 31.1571 13.062 31.068 13.2756L31.0455 13.3296L30.9165 13.6416C30.3894 14.8656 29.6738 15.9994 28.7955 17.0016C28.0927 17.8954 27.1349 18.5545 26.049 18.8916C25.5395 19.0292 25.0081 19.0659 24.4845 18.9996C24.2708 18.9728 24.0592 18.9307 23.8515 18.8736C23.7424 18.8629 23.6347 18.8403 23.5305 18.8061C23.0457 18.6446 22.5976 18.3892 22.2116 18.0544C21.8256 17.7196 21.5093 17.3121 21.2808 16.8551C21.0524 16.398 20.9162 15.9004 20.8801 15.3908C20.8441 14.8811 20.9087 14.3693 21.0705 13.8846ZM18.09 6.63663C17.933 6.74792 17.7552 6.8266 17.5673 6.86803C17.3793 6.90945 17.185 6.91278 16.9957 6.87782C16.8065 6.84286 16.6262 6.77031 16.4654 6.66447C16.3047 6.55862 16.1668 6.42163 16.0599 6.26159C15.953 6.10154 15.8793 5.92169 15.843 5.73267C15.8068 5.54365 15.8089 5.34928 15.8491 5.16106C15.8893 4.97285 15.9668 4.7946 16.077 4.63685C16.1873 4.4791 16.3281 4.34505 16.491 4.24263C16.8085 4.04306 17.1913 3.97522 17.5581 4.05353C17.9248 4.13184 18.2465 4.35013 18.4548 4.66197C18.6631 4.97382 18.7415 5.35461 18.6734 5.72338C18.6053 6.09214 18.396 6.41978 18.09 6.63663ZM35.952 34.9056C36.1106 34.793 36.2902 34.7133 36.4801 34.6713C36.67 34.6292 36.8664 34.6257 37.0577 34.6609C37.249 34.6961 37.4313 34.7693 37.5939 34.8762C37.7564 34.983 37.8958 35.1214 38.004 35.2831C38.1121 35.4448 38.1867 35.6265 38.2234 35.8175C38.2601 36.0086 38.2581 36.205 38.2175 36.3952C38.177 36.5855 38.0987 36.7657 37.9873 36.9251C37.8759 37.0846 37.7337 37.2201 37.569 37.3236C37.2483 37.5253 36.8616 37.5939 36.4912 37.5149C36.1207 37.436 35.7956 37.2156 35.585 36.9007C35.3744 36.5858 35.295 36.2012 35.3635 35.8287C35.432 35.4561 35.6432 35.125 35.952 34.9056ZM37.4505 14.0346C37.912 14.0346 38.3546 13.8513 38.6809 13.525C39.0072 13.1987 39.1905 12.7561 39.1905 12.2946C39.1905 11.8331 39.0072 11.3906 38.6809 11.0643C38.3546 10.7379 37.912 10.5546 37.4505 10.5546C36.989 10.5546 36.5465 10.7379 36.2201 11.0643C35.8938 11.3906 35.7105 11.8331 35.7105 12.2946C35.7105 12.7561 35.8938 13.1987 36.2201 13.525C36.5465 13.8513 36.989 14.0346 37.4505 14.0346ZM9.97651 13.7406C9.78666 13.8733 9.57224 13.9667 9.34582 14.0154C9.1194 14.0641 8.88553 14.0672 8.65793 14.0243C8.43032 13.9815 8.21357 13.8936 8.02036 13.7659C7.82715 13.6382 7.66139 13.4732 7.53278 13.2806C7.40417 13.0879 7.31531 12.8716 7.2714 12.6442C7.2275 12.4168 7.22943 12.1829 7.2771 11.9563C7.32476 11.7296 7.41718 11.5148 7.54896 11.3243C7.68074 11.1339 7.84921 10.9716 8.04451 10.8471C8.42841 10.5909 8.89836 10.4977 9.35098 10.588C9.8036 10.6783 10.2018 10.9447 10.458 11.3286C10.7142 11.7125 10.8074 12.1825 10.7171 12.6351C10.6268 13.0877 10.3604 13.4859 9.97651 13.7421" fill="#0F172A"/>
<path d="M44.094 23.0017C43.9073 23.0884 43.7053 23.1373 43.4996 23.1455C43.2939 23.1537 43.0886 23.1212 42.8955 23.0497C41.3046 22.4551 39.5883 22.2765 37.9091 22.5308C36.2299 22.7852 34.6434 23.4641 33.3 24.5032C36.7905 24.5932 40.203 25.5442 43.2345 27.2767C43.9758 27.6951 44.5216 28.3896 44.7529 29.2088C44.9842 30.028 44.8822 30.9054 44.4693 31.6497C44.0564 32.3941 43.3659 32.9449 42.5484 33.1823C41.731 33.4196 40.8529 33.3242 40.1055 32.9167C38.3111 31.875 36.3153 31.2275 34.2511 31.0172C32.1869 30.8069 30.1016 31.0387 28.134 31.6972C28.6365 32.6617 29.013 33.6877 29.2515 34.7497C29.337 35.0662 29.379 35.3947 29.3775 35.7217C29.4287 36.1363 29.391 36.557 29.2668 36.9558C29.1427 37.3546 28.9349 37.7224 28.6575 38.0347C28.5375 38.1547 28.405 38.2592 28.26 38.3482C27.8168 38.7739 27.272 39.0791 26.6775 39.2347L7.57051 44.3497C6.95446 44.5141 6.30598 44.5133 5.69033 44.3475C5.07468 44.1816 4.51358 43.8565 4.06349 43.4049C3.61339 42.9533 3.29019 42.3911 3.12641 41.7749C2.96263 41.1587 2.96404 40.5102 3.13051 39.8947L8.24551 20.7847C8.4026 20.1835 8.71266 19.6331 9.14551 19.1872C9.23151 19.0482 9.33151 18.9207 9.44551 18.8047C9.74823 18.5345 10.1041 18.3306 10.4903 18.2061C10.8765 18.0816 11.2845 18.0392 11.688 18.0817C12.0525 18.0727 12.417 18.1192 12.768 18.2197C13.6998 18.4295 14.6032 18.7498 15.459 19.1737C15.879 16.7437 15.474 14.2417 14.3055 12.0697C14.0847 11.658 14.0365 11.1754 14.1716 10.7281C14.3066 10.2808 14.6138 9.9055 15.0255 9.68471C15.4373 9.46392 15.9199 9.41574 16.3671 9.55076C16.8144 9.68579 17.1897 9.99296 17.4105 10.4047C19.1641 13.6731 19.6061 17.4869 18.6465 21.0697C19.8111 21.8961 20.9182 22.8006 21.96 23.7772C22.276 23.4568 22.7047 23.2726 23.1546 23.2639C23.6045 23.2552 24.04 23.4226 24.3682 23.7304C24.6964 24.0383 24.8913 24.4622 24.9114 24.9117C24.9314 25.3613 24.775 25.8009 24.4755 26.1367C24.6895 26.0517 24.9065 25.9702 25.1265 25.8922C27.1034 25.1818 29.165 24.7339 31.2585 24.5602C31.0741 24.4122 30.9254 24.2246 30.8234 24.0113C30.7214 23.798 30.6687 23.5645 30.6693 23.328C30.6699 23.0916 30.7237 22.8583 30.8267 22.6455C30.9298 22.4327 31.0794 22.2458 31.2645 22.0987C33.035 20.6985 35.137 19.7791 37.367 19.4296C39.597 19.0801 41.8795 19.3123 43.9935 20.1037C44.2832 20.2135 44.5341 20.4064 44.7145 20.6582C44.8949 20.9101 44.9969 21.2096 45.0077 21.5193C45.0184 21.8289 44.9374 22.1348 44.7749 22.3986C44.6123 22.6623 44.3754 22.8721 44.094 23.0017ZM17.262 34.0372L16.9905 33.8047L17.2395 34.0177L17.262 34.0372ZM6.08101 42.8992C6.44101 42.9967 6.82201 42.9967 7.18351 42.9007L8.05051 42.6742C6.82453 41.7852 5.72323 40.7358 4.77601 39.5542L4.57951 40.2892C4.43275 40.8344 4.50846 41.4156 4.79001 41.905C5.07156 42.3944 5.53591 42.752 6.08101 42.8992ZM8.47501 39.1387C9.54291 40.1228 10.7442 40.9515 12.0435 41.6002L16.2405 40.4767C14.6072 39.5118 13.0833 38.3726 11.6955 37.0792C9.88067 35.3651 8.29639 33.4223 6.98251 31.2997L5.79151 35.7532C6.52138 37.003 7.42489 38.1428 8.47501 39.1387ZM13.7505 34.8862C15.7523 36.7345 18.0489 38.2351 20.5455 39.3262L24.282 38.3242C20.8648 36.9736 17.7866 34.8878 15.2655 32.2147C14.3818 31.3375 13.5485 30.4111 12.7695 29.4397C12.4245 29.0117 12.1025 28.5852 11.8035 28.1602C10.6823 26.6439 9.78699 24.973 9.14551 23.1997L8.09101 27.1912C9.52368 30.0609 11.4379 32.6637 13.7505 34.8862ZM43.0515 29.0212C42.9029 28.8443 42.7216 28.6976 42.5175 28.5892H42.51C39.9679 27.1351 37.1339 26.2653 34.2137 26.0429C31.2935 25.8206 28.3605 26.2512 25.6275 27.3037L25.3395 27.4087L25.353 27.4237C22.5106 28.5607 19.9731 30.3462 17.943 32.6377C18.3315 32.9782 18.708 33.2902 19.0815 33.5902C19.605 34.0102 20.1315 34.3987 20.7315 34.7902C22.3684 32.9063 24.4433 31.4537 26.7735 30.5602C29.0456 29.6689 31.489 29.2996 33.9231 29.4795C36.3571 29.6595 38.7196 30.384 40.836 31.5997C41.1851 31.8091 41.5971 31.8883 41.999 31.8233C42.4009 31.7582 42.7668 31.5531 43.032 31.2442C43.2973 30.9354 43.4447 30.5426 43.4483 30.1355C43.4518 29.7284 43.3113 29.3347 43.0515 29.0212Z" fill="#0F172A"/>
</svg>
