<svg width="48" height="49" viewBox="0 0 48 49" fill="none" xmlns="http://www.w3.org/2000/svg">
<path d="M38.988 12.3335C37.1903 10.0855 34.9096 8.27094 32.315 7.02453C29.7204 5.77812 26.8785 5.13182 24 5.13355C21.1215 5.13182 18.2796 5.77812 15.685 7.02453C13.0904 8.27094 10.8097 10.0855 9.012 12.3335H12.24C15.3779 9.25183 19.6019 7.52776 24 7.53355C28.3973 7.52839 32.6203 9.25242 35.7576 12.3335H38.988ZM43.0512 26.7336H40.632C40.0244 30.9373 37.8473 34.7549 34.5388 37.4183C31.2303 40.0818 27.0358 41.3934 22.7993 41.0893C18.5628 40.7851 14.5987 38.8879 11.7045 35.7791C8.81034 32.6704 7.2009 28.5809 7.2 24.3335H4.8C4.79636 29.22 6.65601 33.9241 10 37.4871C13.344 41.0502 17.9208 43.2042 22.7977 43.5102C27.6746 43.8162 32.4847 42.2511 36.2478 39.134C40.011 36.0169 42.444 31.5822 43.0512 26.7336ZM7.2 14.7335H43.2V19.5335H40.8V24.3335H38.4V26.7336H28.8V24.3335H26.4V19.5335H24V24.3335H21.6V26.7336H12V24.3335H9.6V19.5335H4.8V17.1335H7.2V14.7335ZM2.4 21.9335V19.5335H4.8V21.9335H2.4ZM2.4 21.9335V26.7336H0V21.9335H2.4ZM12 19.5335V21.9335H14.4V19.5335H12ZM14.4 21.9335V24.3335H16.8V21.9335H14.4ZM28.8 19.5335V21.9335H31.2V19.5335H28.8ZM31.2 21.9335V24.3335H33.6V21.9335H31.2ZM16.5336 30.3672C16.4343 30.2445 16.3119 30.1427 16.1732 30.0674C16.0346 29.9921 15.8825 29.9449 15.7256 29.9284C15.5687 29.9119 15.4101 29.9265 15.2588 29.9713C15.1076 30.0161 14.9666 30.0903 14.844 30.1896C14.7214 30.2888 14.6196 30.4113 14.5443 30.5499C14.469 30.6886 14.4218 30.8407 14.4053 30.9976C14.3888 31.1545 14.4034 31.3131 14.4482 31.4643C14.493 31.6156 14.5671 31.7565 14.6664 31.8792C15.7916 33.2706 17.2137 34.3927 18.8287 35.1634C20.4437 35.9342 22.2106 36.334 24 36.3336C27.768 36.3336 31.1352 34.5935 33.3336 31.8767C33.5338 31.6291 33.6274 31.3122 33.5939 30.9955C33.5603 30.6789 33.4024 30.3885 33.1548 30.1884C32.9072 29.9882 32.5902 29.8945 32.2736 29.9281C31.9569 29.9616 31.6666 30.1195 31.4664 30.3672C30.5666 31.4807 29.4291 32.379 28.1372 32.9961C26.8453 33.6132 25.4317 33.9335 24 33.9335C22.5683 33.9335 21.1547 33.6132 19.8628 32.9961C18.5709 32.379 17.4334 31.4807 16.5336 30.3672Z" fill="#0F172A"/>
</svg>
