<svg width="48" height="49" viewBox="0 0 48 49" fill="none" xmlns="http://www.w3.org/2000/svg">
<path d="M7.57501 45.5167L9.78301 44.9257L10.374 43.6432L14.199 43.7437L18.1785 42.6787L19.0755 41.2897L22.7985 41.4427L26.685 40.4017C29.385 39.6817 30.3 36.2917 28.32 34.3117L14.34 20.3167C12.36 18.3367 8.97001 19.2367 8.25001 21.9517L7.09051 26.2822L7.25251 29.7982L5.93251 30.6112L4.74751 35.0377L4.94551 38.4097L3.65101 39.1357L3.13501 41.0617C2.40001 43.7617 4.87501 46.2367 7.57501 45.5167Z" fill="#F9C23C"/>
<path d="M11.7 38.2462C9.48001 36.1717 7.59001 33.6757 5.91901 30.6592L7.08601 26.3032C9.00301 30.5002 11.16 33.6367 13.7475 36.0532C16.242 38.3827 19.197 40.0987 22.8525 41.4277L18.1605 42.6832C15.7575 41.4877 13.62 40.0372 11.7015 38.2462M6.43051 42.4957C5.37079 41.4955 4.43645 40.3702 3.64801 39.1447L4.76551 34.9702C5.82001 37.2052 7.00051 38.9212 8.47951 40.3057C9.95551 41.6857 11.7915 42.7942 14.2365 43.7332L9.75301 44.9332C8.55585 44.2506 7.44105 43.4327 6.43051 42.4957Z" fill="#3F5FFF"/>
<path d="M28.665 39.2019C30.765 37.1019 28.155 31.1019 22.845 25.7919C17.535 20.4819 11.55 17.8719 9.45001 19.9719C7.35001 22.0719 9.96001 28.0719 15.27 33.3819C20.58 38.6919 26.58 41.2869 28.665 39.2019Z" fill="#6D4534"/>
<path d="M17.415 11.5717C18.3319 13.2789 18.8996 15.1516 19.085 17.0806C19.2704 19.0095 19.0698 20.9561 18.495 22.8067C17.5349 25.9822 15.5185 28.7342 12.78 30.6067C12 29.6317 11.325 28.6567 10.755 27.7117C12.8442 26.2867 14.3841 24.1911 15.12 21.7717C16.005 18.9067 15.72 15.8767 14.31 13.2367C13.845 12.3667 14.175 11.3017 15.03 10.8517C15.9 10.3867 16.965 10.7167 17.415 11.5717ZM33.225 25.7362C34.5719 24.672 36.1707 23.9734 37.8666 23.708C39.5626 23.4426 41.2983 23.6194 42.906 24.2212C43.0995 24.2933 43.3054 24.3265 43.5118 24.3191C43.7182 24.3116 43.9211 24.2636 44.1089 24.1777C44.2967 24.0919 44.4658 23.9698 44.6065 23.8186C44.7471 23.6674 44.8566 23.49 44.9287 23.2964C45.0008 23.1029 45.0341 22.8971 45.0267 22.6907C45.0192 22.4843 44.9712 22.2814 44.8853 22.0935C44.7994 21.9057 44.6774 21.7366 44.5262 21.596C44.375 21.4553 44.1975 21.3458 44.004 21.2737C41.89 20.4823 39.6075 20.2501 37.3775 20.5996C35.1475 20.9491 33.0455 21.8685 31.275 23.2687C31.113 23.3967 30.9778 23.5554 30.8771 23.7357C30.7764 23.916 30.7122 24.1144 30.6882 24.3195C30.6641 24.5246 30.6807 24.7324 30.737 24.9311C30.7933 25.1298 30.8882 25.3154 31.0162 25.4774C31.1443 25.6394 31.303 25.7747 31.4833 25.8753C31.6636 25.976 31.8619 26.0402 32.067 26.0643C32.2721 26.0883 32.48 26.0717 32.6786 26.0154C32.8773 25.9591 33.063 25.8642 33.225 25.7362ZM9.01499 15.2017C9.47647 15.2017 9.91905 15.0184 10.2454 14.692C10.5717 14.3657 10.755 13.9232 10.755 13.4617C10.755 13.0002 10.5717 12.5576 10.2454 12.2313C9.91905 11.905 9.47647 11.7217 9.01499 11.7217C8.55352 11.7217 8.11094 11.905 7.78463 12.2313C7.45831 12.5576 7.27499 13.0002 7.27499 13.4617C7.27499 13.9232 7.45831 14.3657 7.78463 14.692C8.11094 15.0184 8.55352 15.2017 9.01499 15.2017ZM39.195 13.4617C39.195 13.9232 39.0117 14.3657 38.6854 14.692C38.359 15.0184 37.9165 15.2017 37.455 15.2017C36.9935 15.2017 36.5509 15.0184 36.2246 14.692C35.8983 14.3657 35.715 13.9232 35.715 13.4617C35.715 13.0002 35.8983 12.5576 36.2246 12.2313C36.5509 11.905 36.9935 11.7217 37.455 11.7217C37.9165 11.7217 38.359 11.905 38.6854 12.2313C39.0117 12.5576 39.195 13.0002 39.195 13.4617Z" fill="#F70A8D"/>
<path d="M18.735 6.60675C18.735 6.98866 18.5833 7.35493 18.3132 7.62498C18.0432 7.89503 17.6769 8.04675 17.295 8.04675C16.9131 8.04675 16.5468 7.89503 16.2768 7.62498C16.0067 7.35493 15.855 6.98866 15.855 6.60675C15.855 6.22484 16.0067 5.85857 16.2768 5.58851C16.5468 5.31846 16.9131 5.16675 17.295 5.16675C17.6769 5.16675 18.0432 5.31846 18.3132 5.58851C18.5833 5.85857 18.735 6.22484 18.735 6.60675ZM38.22 37.2817C38.22 37.6676 38.0667 38.0377 37.7939 38.3106C37.521 38.5835 37.1509 38.7367 36.765 38.7367C36.3791 38.7367 36.009 38.5835 35.7362 38.3106C35.4633 38.0377 35.31 37.6676 35.31 37.2817C35.31 36.8959 35.4633 36.5258 35.7362 36.2529C36.009 35.98 36.3791 35.8267 36.765 35.8267C37.1509 35.8267 37.521 35.98 37.7939 36.2529C38.0667 36.5258 38.22 36.8959 38.22 37.2817Z" fill="#F9C23C"/>
<path d="M32.445 6.6968C32.2042 6.48169 31.8974 6.35476 31.575 6.3368C31.1859 6.31618 30.8043 6.44931 30.5125 6.70746C30.2207 6.96561 30.042 7.32811 30.015 7.7168C29.91 9.3668 28.77 12.3518 28.335 13.3568C28.334 13.3648 28.3315 13.3723 28.3275 13.3793C28.3225 13.3873 28.32 13.3948 28.32 13.4018C28.24 13.5998 28.154 13.7948 28.062 13.9868C27.536 13.3338 26.8265 12.8531 26.025 12.6068L25.98 12.5918C23.955 11.9168 21.75 13.0118 21.075 15.0518C20.745 16.0418 20.82 17.0918 21.285 18.0218C21.75 18.9518 22.545 19.6418 23.535 19.9718C23.641 20.0078 23.748 20.0303 23.856 20.0393C24.616 20.2453 25.3485 20.2528 26.0535 20.0618C26.0112 20.2685 25.9617 20.4736 25.905 20.6768C25.695 21.4568 26.16 22.2668 26.94 22.4768C27.3159 22.5777 27.7165 22.5255 28.054 22.3314C28.3914 22.1374 28.6381 21.8175 28.74 21.4418C29.0759 20.2305 29.2241 18.975 29.1795 17.7188C29.9595 16.7388 30.583 15.6648 31.05 14.4968L31.0725 14.4428C31.35 13.7708 32.8095 10.2398 32.955 7.8818C32.97 7.4168 32.775 6.9818 32.445 6.6968ZM25.125 15.3818C25.5375 15.5198 25.962 15.7508 26.142 16.6958C25.404 17.3813 24.93 17.3063 24.51 17.1668C24.4598 17.1501 24.4087 17.1361 24.357 17.1248C24.166 17.0341 24.0131 16.879 23.925 16.6868C23.8664 16.577 23.8321 16.4559 23.8244 16.3317C23.8166 16.2075 23.8356 16.083 23.88 15.9668C24.045 15.4718 24.585 15.2018 25.08 15.3668L25.125 15.3818ZM27.405 27.9068C32.52 26.4818 37.875 27.1268 42.495 29.7368C43.35 30.2318 43.65 31.2968 43.185 32.1368C42.705 32.9918 41.625 33.2918 40.77 32.8118C38.9031 31.7569 36.846 31.0813 34.7172 30.8239C32.5883 30.5664 30.4296 30.7323 28.365 31.3118C24.9 32.2718 21.93 34.3118 19.785 37.1318C18.87 36.5018 17.925 35.7818 16.995 34.9718C19.59 31.5668 23.205 29.0768 27.405 27.9068ZM24.936 26.1443C24.936 26.6018 24.7543 27.0406 24.4308 27.3641C24.1073 27.6876 23.6685 27.8693 23.211 27.8693C22.7535 27.8693 22.3147 27.6876 21.9912 27.3641C21.6677 27.0406 21.486 26.6018 21.486 26.1443C21.486 25.6868 21.6677 25.248 21.9912 24.9245C22.3147 24.601 22.7535 24.4193 23.211 24.4193C23.6685 24.4193 24.1073 24.601 24.4308 24.9245C24.7543 25.248 24.936 25.6868 24.936 26.1443Z" fill="#00A6ED"/>
</svg>
