<svg width="16" height="16" viewBox="0 0 16 16" fill="none" xmlns="http://www.w3.org/2000/svg">
<path d="M2 9.57143V8.78571H7.25V9.57143H2ZM2 6.42857V5.64286H10.25V6.42857H2ZM2 3.28571V2.5H10.25V3.28571H2ZM8.1725 13.5V11.7636L12.173 7.59379C12.247 7.51626 12.3232 7.46388 12.4017 7.43664C12.4808 7.4094 12.5595 7.39579 12.638 7.39579C12.724 7.39579 12.8085 7.41255 12.8915 7.44607C12.9745 7.48012 13.0498 7.53093 13.1173 7.5985L13.811 8.34021C13.8725 8.41774 13.9195 8.4984 13.952 8.58221C13.984 8.6655 14 8.74905 14 8.83286C14 8.91667 13.9847 9.001 13.9542 9.08586C13.9237 9.17071 13.876 9.2519 13.811 9.32943L9.83 13.5H8.1725ZM8.837 12.8054H9.5495L12.1498 10.0759L11.7972 9.70264L11.456 9.31921L8.837 12.059V12.8054ZM11.7972 9.70264L11.456 9.31921L12.1498 10.0759L11.7972 9.70264Z" fill="#F8FAFC"/>
</svg>
