<svg width="122" height="100" viewBox="0 0 122 100" fill="none" xmlns="http://www.w3.org/2000/svg">
<path d="M40.364 80.4933C41.4676 88.0889 48.3857 94.0654 58.6915 95.7127C68.9302 97.3493 82.2006 94.5842 94.9916 84.8728L97.3165 87.9359C83.7917 98.2045 69.4809 101.332 58.0849 99.51C46.7564 97.6993 37.9861 90.8682 36.5592 81.0455L40.364 80.4933Z" fill="#64748B"/>
<path d="M13.7163 14.2742C20.7507 13.4383 27.2428 17.4367 29.8704 23.6489C30.4547 25.0303 29.0376 26.2637 27.5757 25.9282C24.6011 25.2456 21.3191 25.0519 17.9192 25.4559C11.7459 26.1894 6.41101 28.7436 2.8697 32.2322C1.9287 33.1591 0.265938 32.8617 0.110078 31.55C-0.902876 23.022 5.18834 15.2879 13.7163 14.2742Z" fill="#64748B"/>
<path d="M105.606 0.109114C112.564 -0.717693 118.986 3.23044 121.597 9.36864C122.184 10.7488 120.768 11.9824 119.305 11.6487C116.366 10.9781 113.126 10.7887 109.769 11.1875C103.654 11.9142 98.3682 14.4446 94.8598 17.9007C93.9278 18.8188 92.2799 18.5244 92.1256 17.2253C91.1218 8.77647 97.1572 1.11328 105.606 0.109114Z" fill="#64748B"/>
</svg>
