<svg width="64" height="52" viewBox="0 0 64 52" fill="none" xmlns="http://www.w3.org/2000/svg">
<path d="M20.9893 41.8564C21.5631 45.8061 25.1605 48.9139 30.5195 49.7705C35.8436 50.6215 42.7442 49.1837 49.3955 44.1338L50.6045 45.7266C43.5716 51.0662 36.13 52.6923 30.2041 51.7451C24.3133 50.8035 19.7528 47.2514 19.0107 42.1436L20.9893 41.8564Z" fill="#64748B"/>
<path d="M7.13244 7.42257C10.7903 6.98792 14.1662 9.06708 15.5326 12.2974C15.8364 13.0157 15.0995 13.6571 14.3394 13.4826C12.7925 13.1277 11.0859 13.027 9.31798 13.237C6.10787 13.6185 3.33372 14.9466 1.49224 16.7607C1.00292 17.2427 0.138288 17.088 0.0572406 16.406C-0.469495 11.9714 2.69793 7.94967 7.13244 7.42257Z" fill="#64748B"/>
<path d="M54.915 0.0567392C58.5332 -0.3732 61.8728 1.67983 63.2305 4.87168C63.5357 5.58938 62.799 6.23085 62.0386 6.05732C60.5104 5.70858 58.8254 5.61009 57.08 5.81748C53.8997 6.19538 51.1513 7.51116 49.327 9.30834C48.8424 9.78575 47.9855 9.63265 47.9052 8.95713C47.3833 4.56376 50.5216 0.578906 54.915 0.0567392Z" fill="#64748B"/>
</svg>
