<svg width="12" height="12" viewBox="0 0 12 12" fill="none" xmlns="http://www.w3.org/2000/svg">
<path d="M2.82345 3.88235C2.82345 3.41432 3.00937 2.96546 3.34031 2.63452C3.67125 2.30357 4.12009 2.11765 4.58811 2.11765C5.05613 2.11765 5.50497 2.30357 5.83591 2.63452C6.16685 2.96546 6.35277 3.41432 6.35277 3.88235C6.35277 4.35038 6.16685 4.79924 5.83591 5.13019C5.50497 5.46113 5.05613 5.64706 4.58811 5.64706C4.12009 5.64706 3.67125 5.46113 3.34031 5.13019C3.00937 4.79924 2.82345 4.35038 2.82345 3.88235ZM4.58811 2.82353C4.3073 2.82353 4.03799 2.93508 3.83943 3.13365C3.64087 3.33222 3.52932 3.60154 3.52932 3.88235C3.52932 4.16317 3.64087 4.43249 3.83943 4.63105C4.03799 4.82962 4.3073 4.94118 4.58811 4.94118C4.86892 4.94118 5.13823 4.82962 5.33679 4.63105C5.53535 4.43249 5.6469 4.16317 5.6469 3.88235C5.6469 3.60154 5.53535 3.33222 5.33679 3.13365C5.13823 2.93508 4.86892 2.82353 4.58811 2.82353Z" fill="#F8FAFC"/>
<path d="M7.14545 0H4.85422C4.07777 0 3.47214 -5.25923e-09 2.98721 0.0395294C2.49452 0.0797647 2.0943 0.163059 1.73431 0.345882C1.13647 0.650449 0.650431 1.1365 0.345873 1.73435C0.162349 2.09435 0.0797625 2.49459 0.0395283 2.98729C-5.25909e-09 3.47294 0 4.07718 0 4.85435V7.14565C0 7.81341 1.05182e-08 8.35412 0.0254111 8.80094C0.0272934 8.84659 0.0301169 8.89365 0.0338815 8.94212L0.0359991 8.964C0.0607043 9.29294 0.103056 9.58094 0.179995 9.84353C0.222818 9.99129 0.27811 10.132 0.345873 10.2656C0.650431 10.8635 1.13647 11.3496 1.73431 11.6541C2.0943 11.8376 2.49452 11.9202 2.98721 11.9605C3.47214 12 4.07706 12 4.85422 12H7.14545C7.9219 12 8.52753 12 9.01246 11.9605C9.50515 11.9202 9.90538 11.8369 10.2654 11.6541C10.8632 11.3496 11.3492 10.8635 11.6538 10.2656C12.0039 9.57741 12.0018 8.74588 11.9997 7.97788L11.999 7.73647L11.9997 7.14565V4.85435C11.9997 4.07788 11.9997 3.47224 11.9601 2.98729C11.9199 2.49459 11.8366 2.09435 11.6538 1.73435C11.3492 1.1365 10.8632 0.650449 10.2654 0.345882C9.90538 0.162353 9.50515 0.0797647 9.01246 0.0395294C8.52753 -5.25923e-09 7.92261 0 7.14545 0ZM0.743274 8.95482L0.739039 8.90541C0.710098 8.46212 1.16467 8.02306 1.50066 7.69906C1.55478 7.64729 1.60466 7.59859 1.65031 7.55294C1.82819 7.37365 1.94889 7.29247 2.05689 7.25365C2.29163 7.16783 2.54917 7.16783 2.78392 7.25365C2.89121 7.29247 3.01192 7.37365 3.1898 7.55294C3.36979 7.73435 3.58226 7.98847 3.88436 8.35059C3.96874 8.45207 4.07355 8.53462 4.19198 8.59286C4.3104 8.65109 4.43978 8.68371 4.57166 8.68857C4.70354 8.69343 4.83496 8.67043 4.95736 8.62108C5.07975 8.57172 5.19036 8.49711 5.28197 8.40212L7.40168 6.20612C7.46309 6.14259 7.52732 6.07059 7.59368 5.99647C7.8372 5.724 8.1146 5.41341 8.43859 5.30541C8.65556 5.23323 8.89007 5.23323 9.10705 5.30541C9.65268 5.48753 10.1651 6.10235 10.6105 6.63671C10.7757 6.83435 10.931 7.02141 11.0764 7.17106C11.2536 7.35529 11.2938 7.46118 11.2931 7.70965C11.291 8.32376 11.279 8.77341 11.2402 9.12494C11.1999 9.48141 11.1322 9.73341 11.0249 9.94518C10.788 10.4102 10.4099 10.7883 9.94491 11.0252C9.70068 11.1494 9.40421 11.22 8.95529 11.2567C8.50212 11.2941 7.92543 11.2941 7.12922 11.2941H4.87045C4.07424 11.2941 3.49755 11.2941 3.04509 11.2567C2.59546 11.22 2.299 11.1494 2.05477 11.0252C1.55854 10.7718 1.16253 10.3581 0.931033 9.85129C0.833624 9.62471 0.775743 9.348 0.743274 8.95482ZM11.2938 6.38118L10.6409 5.70494C10.42 5.46849 10.1902 5.24056 9.95196 5.02165C9.7522 4.84659 9.55809 4.71176 9.3301 4.63624C8.96834 4.51583 8.5773 4.51583 8.21554 4.63624C7.98755 4.71176 7.79343 4.84659 7.59438 5.02165C7.40027 5.19106 7.17933 5.42047 6.90475 5.70494L4.77375 7.91153C4.75102 7.93519 4.72355 7.95378 4.69314 7.96608C4.66272 7.97839 4.63005 7.98413 4.59726 7.98293C4.56448 7.98173 4.53232 7.97362 4.50288 7.95912C4.47345 7.94463 4.44741 7.92408 4.42647 7.89882L4.41588 7.88612C4.12648 7.53953 3.89495 7.26141 3.69096 7.05529C3.48202 6.84494 3.2745 6.68118 3.02604 6.59012C2.63471 6.44703 2.20539 6.44703 1.81407 6.59012C1.5656 6.68188 1.35879 6.84424 1.14914 7.056C0.994985 7.21485 0.847111 7.37968 0.705863 7.55012V4.87059C0.705863 4.07435 0.705863 3.49765 0.743274 3.04518C0.779979 2.59553 0.850565 2.29906 0.974797 2.05482C1.21168 1.58979 1.58974 1.21172 2.05477 0.974824C2.299 0.850588 2.59546 0.78 3.04509 0.743294C3.49755 0.705882 4.07424 0.705882 4.87045 0.705882H7.12922C7.92543 0.705882 8.50212 0.705882 8.95458 0.743294C9.40421 0.78 9.70068 0.850588 9.94491 0.974824C10.4099 1.21172 10.788 1.58979 11.0249 2.05482C11.1491 2.29906 11.2197 2.59553 11.2564 3.04518C11.2938 3.49765 11.2938 4.07435 11.2938 4.87059V6.38118Z" fill="#F8FAFC"/>
</svg>
