<svg width="35" height="33" viewBox="0 0 35 33" fill="none" xmlns="http://www.w3.org/2000/svg">
<g filter="url(#filter0_d_82_929)">
<path d="M29.2105 12.4993H13.0418M7.33468 12.4993H5M7.33468 12.4993C7.33468 11.7427 7.63525 11.0171 8.17028 10.482C8.70531 9.947 9.43096 9.64643 10.1876 9.64643C10.9442 9.64643 11.6699 9.947 12.2049 10.482C12.7399 11.0171 13.0405 11.7427 13.0405 12.4993C13.0405 13.256 12.7399 13.9816 12.2049 14.5167C11.6699 15.0517 10.9442 15.3523 10.1876 15.3523C9.43096 15.3523 8.70531 15.0517 8.17028 14.5167C7.63525 13.9816 7.33468 13.256 7.33468 12.4993ZM29.2105 21.1458H21.6883M21.6883 21.1458C21.6883 21.9026 21.387 22.6291 20.8518 23.1642C20.3167 23.6994 19.5908 24 18.834 24C18.0774 24 17.3517 23.6981 16.8167 23.1631C16.2817 22.6281 15.9811 21.9024 15.9811 21.1458M21.6883 21.1458C21.6883 20.389 21.387 19.6638 20.8518 19.1286C20.3167 18.5935 19.5908 18.2929 18.834 18.2929C18.0774 18.2929 17.3517 18.5934 16.8167 19.1285C16.2817 19.6635 15.9811 20.3891 15.9811 21.1458M15.9811 21.1458H5M29.2105 3.85292H25.1471M19.4399 3.85292H5M19.4399 3.85292C19.4399 3.09628 19.7405 2.37063 20.2755 1.8356C20.8106 1.30057 21.5362 1 22.2929 1C22.6675 1 23.0385 1.07379 23.3846 1.21717C23.7308 1.36054 24.0453 1.57068 24.3102 1.8356C24.5751 2.10052 24.7852 2.41502 24.9286 2.76115C25.072 3.10728 25.1458 3.47827 25.1458 3.85292C25.1458 4.22757 25.072 4.59855 24.9286 4.94468C24.7852 5.29081 24.5751 5.60531 24.3102 5.87023C24.0453 6.13515 23.7308 6.34529 23.3846 6.48867C23.0385 6.63204 22.6675 6.70583 22.2929 6.70583C21.5362 6.70583 20.8106 6.40526 20.2755 5.87023C19.7405 5.33521 19.4399 4.60956 19.4399 3.85292Z" stroke="#0F172A" stroke-width="2" stroke-miterlimit="10" stroke-linecap="round"/>
</g>
<defs>
<filter id="filter0_d_82_929" x="0" y="0" width="34.2105" height="33" filterUnits="userSpaceOnUse" color-interpolation-filters="sRGB">
<feFlood flood-opacity="0" result="BackgroundImageFix"/>
<feColorMatrix in="SourceAlpha" type="matrix" values="0 0 0 0 0 0 0 0 0 0 0 0 0 0 0 0 0 0 127 0" result="hardAlpha"/>
<feOffset dy="4"/>
<feGaussianBlur stdDeviation="2"/>
<feComposite in2="hardAlpha" operator="out"/>
<feColorMatrix type="matrix" values="0 0 0 0 0 0 0 0 0 0 0 0 0 0 0 0 0 0 0.25 0"/>
<feBlend mode="normal" in2="BackgroundImageFix" result="effect1_dropShadow_82_929"/>
<feBlend mode="normal" in="SourceGraphic" in2="effect1_dropShadow_82_929" result="shape"/>
</filter>
</defs>
</svg>
