<svg width="32" height="32" viewBox="0 0 32 32" fill="none" xmlns="http://www.w3.org/2000/svg">
<g filter="url(#filter0_d_82_928)">
<path fill-rule="evenodd" clip-rule="evenodd" d="M16.8631 0.351347C16.6381 0.12638 16.3329 0 16.0147 0C15.6965 0 15.3914 0.12638 15.1663 0.351347L6.76635 8.75144L4.36635 11.1515C4.25173 11.2622 4.16032 11.3946 4.09742 11.541C4.03453 11.6874 4.00143 11.8449 4.00005 12.0042C3.99866 12.1635 4.02902 12.3215 4.08936 12.469C4.1497 12.6165 4.2388 12.7505 4.35147 12.8632C4.46414 12.9758 4.59813 13.0649 4.7456 13.1253C4.89308 13.1856 5.05109 13.216 5.21043 13.2146C5.36976 13.2132 5.52723 13.1801 5.67363 13.1172C5.82004 13.0543 5.95245 12.9629 6.06315 12.8483L6.41475 12.4967V20.4C6.41475 21.3548 6.79403 22.2704 7.46916 22.9456C8.14429 23.6207 9.05997 24 10.0147 24H22.0147C22.9695 24 23.8852 23.6207 24.5603 22.9456C25.2355 22.2704 25.6147 21.3548 25.6147 20.4V12.4967L25.9663 12.8483C26.1927 13.0669 26.4958 13.1878 26.8104 13.1851C27.1251 13.1824 27.426 13.0562 27.6485 12.8337C27.871 12.6112 27.9972 12.3102 28 11.9956C28.0027 11.6809 27.8817 11.3778 27.6631 11.1515L16.8631 0.351347Z" fill="#0F172A"/>
</g>
<defs>
<filter id="filter0_d_82_928" x="0" y="0" width="32" height="32" filterUnits="userSpaceOnUse" color-interpolation-filters="sRGB">
<feFlood flood-opacity="0" result="BackgroundImageFix"/>
<feColorMatrix in="SourceAlpha" type="matrix" values="0 0 0 0 0 0 0 0 0 0 0 0 0 0 0 0 0 0 127 0" result="hardAlpha"/>
<feOffset dy="4"/>
<feGaussianBlur stdDeviation="2"/>
<feComposite in2="hardAlpha" operator="out"/>
<feColorMatrix type="matrix" values="0 0 0 0 0 0 0 0 0 0 0 0 0 0 0 0 0 0 0.25 0"/>
<feBlend mode="normal" in2="BackgroundImageFix" result="effect1_dropShadow_82_928"/>
<feBlend mode="normal" in="SourceGraphic" in2="effect1_dropShadow_82_928" result="shape"/>
</filter>
</defs>
</svg>
