<svg width="60" height="32" viewBox="0 0 60 32" fill="none" xmlns="http://www.w3.org/2000/svg">
<g filter="url(#filter0_d_82_925)">
<circle cx="16" cy="5.23636" r="4.23636" stroke="#0F172A" stroke-width="2"/>
<path d="M12 14.0908H20C23.866 14.0908 27 17.2248 27 21.0908V22C27 22.5522 26.5523 23 26 23H6C5.44775 23 5.00005 22.5522 5 22V21.0908C5 17.2248 8.13401 14.0908 12 14.0908Z" stroke="#0F172A" stroke-width="2"/>
<circle cx="29" cy="5.23636" r="4.23636" stroke="#0F172A" stroke-width="2"/>
<path d="M17 21.0908C17 16.6725 20.5817 13.0908 25 13.0908H33C37.4183 13.0908 41 16.6725 41 21.0908V21.9999C41 23.1045 40.1046 23.9999 39 23.9999H19C17.8954 23.9999 17 23.1045 17 21.9999V21.0908Z" fill="#0F172A"/>
<path d="M49 9L51.2929 6.70711C51.6834 6.31658 52.3166 6.31658 52.7071 6.70711L55 9" stroke="#0F172A" stroke-width="1.25" stroke-linecap="round"/>
<path d="M49 15L51.2929 17.2929C51.6834 17.6834 52.3166 17.6834 52.7071 17.2929L55 15" stroke="#0F172A" stroke-width="1.25" stroke-linecap="round"/>
</g>
<defs>
<filter id="filter0_d_82_925" x="0" y="0" width="59.625" height="32" filterUnits="userSpaceOnUse" color-interpolation-filters="sRGB">
<feFlood flood-opacity="0" result="BackgroundImageFix"/>
<feColorMatrix in="SourceAlpha" type="matrix" values="0 0 0 0 0 0 0 0 0 0 0 0 0 0 0 0 0 0 127 0" result="hardAlpha"/>
<feOffset dy="4"/>
<feGaussianBlur stdDeviation="2"/>
<feComposite in2="hardAlpha" operator="out"/>
<feColorMatrix type="matrix" values="0 0 0 0 0 0 0 0 0 0 0 0 0 0 0 0 0 0 0.25 0"/>
<feBlend mode="normal" in2="BackgroundImageFix" result="effect1_dropShadow_82_925"/>
<feBlend mode="normal" in="SourceGraphic" in2="effect1_dropShadow_82_925" result="shape"/>
</filter>
</defs>
</svg>
